<?xml version="1.0" encoding="UTF-8" standalone="no"?>
<!-- Created with Inkscape (http://www.inkscape.org/) -->

<svg
   width="270.37573mm"
   height="270.37573mm"
   viewBox="0 0 270.37573 270.37573"
   version="1.1"
   id="svg1"
   xml:space="preserve"
   inkscape:version="1.4.2 (f4327f4, 2025-05-13)"
   sodipodi:docname="logo.svg"
   xmlns:inkscape="http://www.inkscape.org/namespaces/inkscape"
   xmlns:sodipodi="http://sodipodi.sourceforge.net/DTD/sodipodi-0.dtd"
   xmlns="http://www.w3.org/2000/svg"
   xmlns:svg="http://www.w3.org/2000/svg"><sodipodi:namedview
     id="namedview1"
     pagecolor="#505050"
     bordercolor="#eeeeee"
     borderopacity="1"
     inkscape:showpageshadow="0"
     inkscape:pageopacity="0"
     inkscape:pagecheckerboard="0"
     inkscape:deskcolor="#505050"
     inkscape:document-units="mm"
     inkscape:zoom="0.35355339"
     inkscape:cx="-18.384776"
     inkscape:cy="873.98398"
     inkscape:window-width="1920"
     inkscape:window-height="991"
     inkscape:window-x="-9"
     inkscape:window-y="-9"
     inkscape:window-maximized="1"
     inkscape:current-layer="layer1" /><defs
     id="defs1"><rect
       x="276.51639"
       y="252.64447"
       width="487.38501"
       height="467.49173"
       id="rect1" /></defs><g
     inkscape:label="Layer 1"
     inkscape:groupmode="layer"
     id="layer1"
     transform="translate(23.228676,0.0088501)"><circle
       style="fill:#000000;fill-opacity:1;fill-rule:evenodd;stroke:none;stroke-width:3.03782;stroke-dasharray:none;stroke-opacity:1;paint-order:fill markers stroke"
       id="path1-5-1-1"
       cx="111.95919"
       cy="135.17902"
       r="135.18787" /><path
       id="text1"
       style="font-size:74.6667px;line-height:2.8;font-family:'Century Gothic';-inkscape-font-specification:'Century Gothic';text-align:center;text-anchor:middle;white-space:pre;fill:#9a9a9a;fill-opacity:1;fill-rule:evenodd;stroke-width:18.0648;paint-order:fill markers stroke"
       d="m 109.06613,57.807156 c -39.181649,1.433777 -71.379068,31.607318 -75.349176,70.613654 -3.970107,39.00636 24.068374,74.88471 62.15769,84.18319 l -0.177393,-9.67486 c -0.0018,-4.3e-4 -0.0037,-4.7e-4 -0.0055,-9e-4 l -0.683082,-49.88638 5.112631,0.66026 35.99948,57.49012 0.003,0.01 c 25.64913,-8.28954 44.41906,-28.74879 51.43313,-53.27397 3.18822,-11.14782 3.94677,-23.1362 1.81851,-35.20241 -6.8102,-38.612283 -41.12764,-66.352502 -80.30929,-64.918704 z m 0.37119,10.121277 c 34.20562,-1.251693 64.01928,22.848031 69.96479,56.556237 5.39661,30.59625 -10.39233,60.48149 -37.70995,73.61047 h -4.4e-4 l -29.81391,-44.39302 c 8.01099,-0.0499 14.28994,-1.22141 18.83672,-3.51526 4.54679,-2.34372 8.03285,-5.78451 10.4578,-10.32238 2.46824,-4.53786 3.70223,-9.79892 3.70223,-15.78291 0,-7.18079 -1.77522,-13.21472 -5.32603,-18.10166 -3.55083,-4.93679 -8.1627,-8.153329 -13.83535,-9.649333 -3.76735,-0.99733 -10.95535,-1.495656 -21.5645,-1.495656 H 85.116784 L 85.365298,199.52787 C 57.980645,188.04001 40.701592,159.83474 43.79446,129.44727 47.260358,95.394674 75.231691,69.180126 109.43732,67.928433 Z M 94.665333,105.606 h 16.823057 c 6.5387,0 11.21539,0.64826 14.03008,1.9448 2.81467,1.29654 5.08775,3.46565 6.81986,6.50752 1.73212,2.99198 2.59827,6.33312 2.59827,10.02325 0,3.78987 -0.86615,7.23064 -2.59827,10.32238 -1.6888,3.04186 -4.07004,5.26082 -7.14454,6.65708 -3.03119,1.39625 -7.72979,2.09439 -14.09529,2.09439 l -16.433167,-0.14957 z" /><circle
       style="fill:none;fill-opacity:1;fill-rule:evenodd;stroke:#5f5f5f;stroke-width:6.57873;stroke-dasharray:none;stroke-opacity:1;paint-order:fill markers stroke"
       id="path1-5"
       cx="111.95919"
       cy="135.17902"
       r="103.48682" /><circle
       style="fill:none;fill-opacity:1;fill-rule:evenodd;stroke:#303030;stroke-width:2.8;stroke-dasharray:none;stroke-opacity:1;paint-order:fill markers stroke"
       id="path1-5-1"
       cx="111.95919"
       cy="135.17902"
       r="124.60453" /><rect
       style="fill:#9a9a9a;fill-opacity:1;fill-rule:evenodd;stroke:none;stroke-width:3.17899;stroke-dasharray:none;stroke-opacity:1;paint-order:fill markers stroke"
       id="rect2"
       width="72.830345"
       height="8.9802551"
       x="46.395645"
       y="168.75557" /></g></svg>
